<svg width="8" height="8" viewBox="0 0 8 8" fill="none" xmlns="http://www.w3.org/2000/svg">
<path d="M1.59125 7.5784C1.40125 7.5784 1.21125 7.5084 1.06125 7.3584C0.77125 7.0684 0.77125 6.5884 1.06125 6.2984L6.72125 0.638398C7.01125 0.348398 7.49125 0.348398 7.78125 0.638398C8.07125 0.928398 8.07125 1.4084 7.78125 1.6984L2.12125 7.3584C1.98125 7.5084 1.78125 7.5784 1.59125 7.5784Z" fill="#FC4C25"/>
<path d="M7.25125 7.5784C7.06125 7.5784 6.87125 7.5084 6.72125 7.3584L1.06125 1.6984C0.77125 1.4084 0.77125 0.928398 1.06125 0.638398C1.35125 0.348398 1.83125 0.348398 2.12125 0.638398L7.78125 6.2984C8.07125 6.5884 8.07125 7.0684 7.78125 7.3584C7.63125 7.5084 7.44125 7.5784 7.25125 7.5784Z" fill="#FC4C25"/>
</svg>
