<svg width="20" height="20" viewBox="0 0 20 20" fill="none" xmlns="http://www.w3.org/2000/svg">
<path opacity="0.3" d="M14.1971 0H5.8229C2.17108 0 0 2.17109 0 5.81291V14.1871C0 17.8289 2.17108 20 5.8129 20H14.1871C17.8289 20 20 17.8289 20 14.1871V5.81291C20.01 2.17109 17.8389 0 14.1971 0Z" fill="#FFD8C7"/>
<g clip-path="url(#clip0_2203_17251)">
<path d="M3.75 12.5662C3.75 12.9779 3.97114 13.3578 4.32908 13.5611L7.80775 15.537C8.5705 15.9702 9.51699 15.4193 9.51699 14.5421V10.6232C9.51699 10.2115 9.29586 9.83163 8.93792 9.62832L5.45924 7.65247C4.6965 7.21924 3.75 7.77016 3.75 8.64735V12.5662Z" fill="#FF5C11"/>
<path d="M10.3167 3.32328C9.96615 3.12403 9.53658 3.12403 9.18601 3.32327L5.73503 5.28463C4.96319 5.72331 4.96331 6.8357 5.73525 7.27421L9.1863 9.23459C9.53672 9.43365 9.96603 9.43367 10.3165 9.23464L13.7678 7.27452C14.5398 6.83606 14.54 5.7236 13.7681 5.28489L10.3167 3.32328Z" fill="#FF5C11"/>
<path d="M9.98828 14.5434C9.98828 15.4206 10.9348 15.9715 11.6975 15.5383L15.1767 13.5621C15.5347 13.3588 15.7558 12.9789 15.7558 12.5672V8.64811C15.7558 7.77096 14.8094 7.22004 14.0467 7.65318L10.5675 9.6289C10.2095 9.83219 9.98828 10.2121 9.98828 10.6238V14.5434Z" fill="#FF5C11"/>
</g>
<defs>
<clipPath id="clip0_2203_17251">
<rect width="12.006" height="13.5068" fill="white" transform="translate(3.75 3.00195)"/>
</clipPath>
</defs>
</svg>
