<svg width="227" height="49" viewBox="0 0 227 49" fill="none" xmlns="http://www.w3.org/2000/svg">
<path d="M14.644 48.3674V9.22169H0.875515V1.12258H37.3215V9.22169H23.553V48.3674H14.644ZM48.8723 49.3123C45.5426 49.3123 42.5505 48.6374 39.8958 47.2875C37.241 45.9377 35.1488 43.9804 33.6189 41.4157C32.0891 38.851 31.3242 35.7688 31.3242 32.1692V31.0893C31.3242 27.4897 32.0891 24.4075 33.6189 21.8428C35.1488 19.2781 37.241 17.3208 39.8958 15.971C42.5505 14.6211 45.5426 13.9462 48.8723 13.9462C52.2019 13.9462 55.1941 14.6211 57.8488 15.971C60.5035 17.3208 62.5958 19.2781 64.1256 21.8428C65.6554 24.4075 66.4204 27.4897 66.4204 31.0893V32.1692C66.4204 35.7688 65.6554 38.851 64.1256 41.4157C62.5958 43.9804 60.5035 45.9377 57.8488 47.2875C55.1941 48.6374 52.2019 49.3123 48.8723 49.3123ZM48.8723 41.7532C51.482 41.7532 53.6418 40.9207 55.3516 39.2559C57.0614 37.5461 57.9163 35.1164 57.9163 31.9667V31.2918C57.9163 28.1421 57.0614 25.7349 55.3516 24.0701C53.6868 22.3603 51.527 21.5054 48.8723 21.5054C46.2626 21.5054 44.1028 22.3603 42.393 24.0701C40.6832 25.7349 39.8283 28.1421 39.8283 31.2918V31.9667C39.8283 35.1164 40.6832 37.5461 42.393 39.2559C44.1028 40.9207 46.2626 41.7532 48.8723 41.7532ZM69.8831 48.3674V14.8911H78.2521V19.2781H79.467C80.007 18.1082 81.0193 17.0058 82.5042 15.971C83.989 14.8911 86.2388 14.3511 89.2534 14.3511C91.8632 14.3511 94.1354 14.9586 96.0702 16.1734C98.05 17.3433 99.5798 18.9856 100.66 21.1004C101.74 23.1702 102.28 25.5999 102.28 28.3896V48.3674H93.7755V29.0645C93.7755 26.5448 93.1455 24.655 91.8857 23.3952C90.6708 22.1353 88.916 21.5054 86.6212 21.5054C84.0115 21.5054 81.9867 22.3828 80.5469 24.1376C79.1071 25.8474 78.3871 28.2546 78.3871 31.3593V48.3674H69.8831ZM106.816 48.3674V1.12258H127.334C130.303 1.12258 132.89 1.64002 135.095 2.67491C137.3 3.7098 139.01 5.17214 140.225 7.06193C141.439 8.95172 142.047 11.179 142.047 13.7437V14.5536C142.047 17.3883 141.372 19.6831 140.022 21.4379C138.672 23.1927 137.007 24.475 135.028 25.2849V26.4998C136.827 26.5898 138.222 27.2197 139.212 28.3896C140.202 29.5145 140.697 31.0218 140.697 32.9116V48.3674H131.788V34.194C131.788 33.1141 131.496 32.2367 130.911 31.5618C130.371 30.8868 129.448 30.5494 128.143 30.5494H115.725V48.3674H106.816ZM115.725 22.4503H126.389C128.503 22.4503 130.146 21.8878 131.316 20.7629C132.53 19.5931 133.138 18.0632 133.138 16.1734V15.4985C133.138 13.6087 132.553 12.1014 131.383 10.9765C130.213 9.80663 128.548 9.22169 126.389 9.22169H115.725V22.4503ZM145.343 48.3674V14.8911H153.847V48.3674H145.343ZM149.595 10.9765C148.065 10.9765 146.76 10.4816 145.68 9.49167C144.646 8.50177 144.128 7.19692 144.128 5.57709C144.128 3.95727 144.646 2.65241 145.68 1.66252C146.76 0.672626 148.065 0.17768 149.595 0.17768C151.17 0.17768 152.475 0.672626 153.51 1.66252C154.544 2.65241 155.062 3.95727 155.062 5.57709C155.062 7.19692 154.544 8.50177 153.51 9.49167C152.475 10.4816 151.17 10.9765 149.595 10.9765ZM174.609 49.3123C171.37 49.3123 168.423 48.6374 165.768 47.2875C163.158 45.9377 161.088 43.9804 159.559 41.4157C158.029 38.851 157.264 35.7463 157.264 32.1017V31.1568C157.264 27.5122 158.029 24.4075 159.559 21.8428C161.088 19.2781 163.158 17.3208 165.768 15.971C168.423 14.6211 171.37 13.9462 174.609 13.9462C177.804 13.9462 180.549 14.5086 182.844 15.6335C185.138 16.7584 186.983 18.3107 188.378 20.2905C189.818 22.2253 190.763 24.43 191.213 26.9048L182.979 28.6596C182.799 27.3097 182.394 26.0949 181.764 25.015C181.134 23.9351 180.234 23.0802 179.064 22.4503C177.939 21.8203 176.522 21.5054 174.812 21.5054C173.102 21.5054 171.55 21.8878 170.155 22.6527C168.805 23.3727 167.725 24.475 166.915 25.9599C166.15 27.3997 165.768 29.177 165.768 31.2918V31.9667C165.768 34.0815 166.15 35.8813 166.915 37.3661C167.725 38.806 168.805 39.9084 170.155 40.6733C171.55 41.3932 173.102 41.7532 174.812 41.7532C177.377 41.7532 179.311 41.1007 180.616 39.7959C181.966 38.446 182.821 36.6912 183.181 34.5314L191.415 36.4887C190.83 38.8735 189.818 41.0557 188.378 43.0355C186.983 44.9703 185.138 46.5001 182.844 47.625C180.549 48.7499 177.804 49.3123 174.609 49.3123ZM194.043 48.3674V1.12258H202.547V19.0081H203.762C204.122 18.2882 204.684 17.5683 205.449 16.8484C206.214 16.1284 207.227 15.5435 208.487 15.0936C209.791 14.5986 211.434 14.3511 213.414 14.3511C216.023 14.3511 218.296 14.9586 220.23 16.1734C222.21 17.3433 223.74 18.9856 224.82 21.1004C225.9 23.1702 226.44 25.5999 226.44 28.3896V48.3674H217.936V29.0645C217.936 26.5448 217.306 24.655 216.046 23.3952C214.831 22.1353 213.076 21.5054 210.781 21.5054C208.172 21.5054 206.147 22.3828 204.707 24.1376C203.267 25.8474 202.547 28.2546 202.547 31.3593V48.3674H194.043Z" fill="#E0E0E0"/>
</svg>
