<svg width="265" height="20" viewBox="0 0 265 20" fill="none" xmlns="http://www.w3.org/2000/svg">
<path opacity="0.3" d="M14.1971 0H5.8229C2.17108 0 0 2.17109 0 5.81291V14.1871C0 17.8289 2.17108 20 5.8129 20H14.1871C17.8289 20 20 17.8289 20 14.1871V5.81291C20.01 2.17109 17.8389 0 14.1971 0Z" fill="#FFD8C7"/>
<g clip-path="url(#clip0_1886_18537)">
<path d="M3.75 12.5662C3.75 12.9779 3.97114 13.3578 4.32908 13.5611L7.80775 15.537C8.5705 15.9702 9.51699 15.4193 9.51699 14.5421V10.6232C9.51699 10.2115 9.29586 9.83163 8.93792 9.62832L5.45924 7.65247C4.6965 7.21924 3.75 7.77016 3.75 8.64735V12.5662Z" fill="#FF5C11"/>
<path d="M10.3167 3.32279C9.96615 3.12354 9.53658 3.12354 9.18601 3.32278L5.73503 5.28414C4.96319 5.72282 4.96331 6.83522 5.73525 7.27372L9.1863 9.2341C9.53672 9.43316 9.96603 9.43318 10.3165 9.23415L13.7678 7.27403C14.5398 6.83557 14.54 5.72311 13.7681 5.28441L10.3167 3.32279Z" fill="#FF5C11"/>
<path d="M9.98828 14.5424C9.98828 15.4196 10.9348 15.9705 11.6975 15.5373L15.1767 13.5611C15.5347 13.3578 15.7558 12.9779 15.7558 12.5662V8.64713C15.7558 7.76999 14.8094 7.21907 14.0467 7.6522L10.5675 9.62792C10.2095 9.83121 9.98828 10.2112 9.98828 10.6229V14.5424Z" fill="#FF5C11"/>
</g>
<path d="M32.9072 5.04688V15H31.1914L26.7275 7.87012V15H25.0117V5.04688H26.7275L31.2051 12.1904V5.04688H32.9072ZM36.667 5.04688V15H34.9512V5.04688H36.667ZM40.7275 9.40137V10.7617H36.2295V9.40137H40.7275ZM41.2949 5.04688V6.41406H36.2295V5.04688H41.2949ZM46.8936 5.04688V15H45.1914V5.04688H46.8936ZM50.0176 5.04688V6.41406H42.0947V5.04688H50.0176Z" fill="#8D8D8D"/>
<defs>
<clipPath id="clip0_1886_18537">
<rect width="12.006" height="13.5068" fill="white" transform="translate(3.75 3.00146)"/>
</clipPath>
</defs>
</svg>
